HIERARCHY
ROOT Hips
{
	OFFSET 0.000000 83.214638 0.000000
	CHANNELS 6 Xposition Yposition Zposition Xrotation Yrotation Zrotation
	JOINT Pelvis
	{
		OFFSET 0.000000 0.000000 0.000000
		CHANNELS 3 Xrotation Yrotation Zrotation
		JOINT LeftUpLeg
		{
			OFFSET 8.479700 -4.795502 -0.379100
			CHANNELS 3 Xrotation Yrotation Zrotation
			JOINT LeftLeg
			{
				OFFSET 0.024144 -32.555107 0.112900
				CHANNELS 3 Xrotation Yrotation Zrotation
				JOINT LeftFoot
				{
					OFFSET -0.024144 -32.638630 -3.012600
					CHANNELS 3 Xrotation Yrotation Zrotation
					JOINT LeftToeBase
					{
						OFFSET 0.970200 -13.225400 11.864200
						CHANNELS 3 Xrotation Yrotation Zrotation
						End Site
						{
							OFFSET 0.000000 12.319262 0.000000
						}
					}
					JOINT LFootTongue
					{
						OFFSET 1.142400 -1.059800 6.665200
						CHANNELS 3 Xrotation Yrotation Zrotation
						End Site
						{
							OFFSET 0.000000 12.319262 0.000000
						}
					}
				}
				JOINT LeftPantLeg
				{
					OFFSET 0.918482 -16.533964 -2.284700
					CHANNELS 3 Xrotation Yrotation Zrotation
					End Site
					{
						OFFSET 0.350399 24.744368 0.000000
					}
				}
			}
		}
		JOINT RightUpLeg
		{
			OFFSET -8.479700 -4.795502 -0.379100
			CHANNELS 3 Xrotation Yrotation Zrotation
			JOINT RightLeg
			{
				OFFSET -0.023144 -32.555092 0.112900
				CHANNELS 3 Xrotation Yrotation Zrotation
				JOINT RightFoot
				{
					OFFSET 0.023144 -32.638641 -3.012700
					CHANNELS 3 Xrotation Yrotation Zrotation
					JOINT RightToeBase
					{
						OFFSET -0.970200 -13.225400 11.864200
						CHANNELS 3 Xrotation Yrotation Zrotation
						End Site
						{
							OFFSET 0.000000 12.319244 0.000000
						}
					}
					JOINT RFootTongue
					{
						OFFSET -1.142200 -1.059800 6.665200
						CHANNELS 3 Xrotation Yrotation Zrotation
						End Site
						{
							OFFSET 0.000000 12.319243 0.000000
						}
					}
				}
				JOINT RightPantLeg
				{
					OFFSET -0.919482 -16.533978 -2.284800
					CHANNELS 3 Xrotation Yrotation Zrotation
					End Site
					{
						OFFSET -0.350400 24.744419 0.000000
					}
				}
			}
		}
	}
	JOINT Spine
	{
		OFFSET 0.000000 7.722000 1.166200
		CHANNELS 3 Xrotation Yrotation Zrotation
		JOINT Spine1
		{
			OFFSET 0.000000 12.024101 0.248800
			CHANNELS 3 Xrotation Yrotation Zrotation
			JOINT Spine2
			{
				OFFSET 0.000000 11.502998 -0.491200
				CHANNELS 3 Xrotation Yrotation Zrotation
				JOINT Neck
				{
					OFFSET 0.000000 18.430702 -3.123100
					CHANNELS 3 Xrotation Yrotation Zrotation
					JOINT Head
					{
						OFFSET 0.000000 9.051102 1.034000
						CHANNELS 3 Xrotation Yrotation Zrotation
						JOINT HairB
						{
							OFFSET 0.208400 24.786102 24.822300
							CHANNELS 3 Xrotation Yrotation Zrotation
							End Site
							{
								OFFSET 0.000000 32.263779 0.000000
							}
						}
						JOINT HairA
						{
							OFFSET -7.081100 24.428299 23.196600
							CHANNELS 3 Xrotation Yrotation Zrotation
							End Site
							{
								OFFSET 0.000000 32.263779 0.000000
							}
						}
						JOINT Hat
						{
							OFFSET 16.728800 15.048294 -15.439601
							CHANNELS 3 Xrotation Yrotation Zrotation
							End Site
							{
								OFFSET 0.000000 32.263779 0.000000
							}
						}
					}
				}
				JOINT LeftShoulder
				{
					OFFSET 6.197800 13.665199 -4.064700
					CHANNELS 3 Xrotation Yrotation Zrotation
					JOINT LeftArm
					{
						OFFSET 7.778100 -0.187103 -1.709300
						CHANNELS 3 Xrotation Yrotation Zrotation
						JOINT LeftForeArm
						{
							OFFSET 22.049376 0.000000 0.000000
							CHANNELS 3 Xrotation Yrotation Zrotation
							JOINT LeftHand
							{
								OFFSET 23.009392 0.000000 0.000000
								CHANNELS 3 Xrotation Yrotation Zrotation
								JOINT LeftHandThumb1
								{
									OFFSET 3.507191 -2.063065 3.133727
									CHANNELS 3 Xrotation Yrotation Zrotation
									JOINT LeftHandThumb2
									{
										OFFSET 3.101337 -1.790558 1.790558
										CHANNELS 3 Xrotation Yrotation Zrotation
										JOINT LeftHandThumb3
										{
											OFFSET 3.058640 -1.765907 1.765906
											CHANNELS 3 Xrotation Yrotation Zrotation
											End Site
											{
												OFFSET -0.415260 3.926476 -0.049563
											}
										}
									}
								}
								JOINT LeftHandIndex1
								{
									OFFSET 11.334419 -0.901459 3.706815
									CHANNELS 3 Xrotation Yrotation Zrotation
									JOINT LeftHandIndex2
									{
										OFFSET 3.283112 0.000000 0.000000
										CHANNELS 3 Xrotation Yrotation Zrotation
										JOINT LeftHandIndex3
										{
											OFFSET 3.323853 0.000000 0.000000
											CHANNELS 3 Xrotation Yrotation Zrotation
											End Site
											{
												OFFSET -1.135597 3.097809 0.402452
											}
										}
									}
								}
								JOINT LeftHandMiddle1
								{
									OFFSET 11.335861 0.000000 0.000000
									CHANNELS 3 Xrotation Yrotation Zrotation
									JOINT LeftHandMiddle2
									{
										OFFSET 3.410492 0.000000 0.000000
										CHANNELS 3 Xrotation Yrotation Zrotation
										JOINT LeftHandMiddle3
										{
											OFFSET 3.312172 0.000000 0.000000
											CHANNELS 3 Xrotation Yrotation Zrotation
											End Site
											{
												OFFSET -1.150200 3.080154 0.400270
											}
										}
									}
								}
								JOINT LeftHandRing1
								{
									OFFSET 11.514786 -0.013176 -3.003090
									CHANNELS 3 Xrotation Yrotation Zrotation
									JOINT LeftHandRing2
									{
										OFFSET 3.053307 0.000000 0.000000
										CHANNELS 3 Xrotation Yrotation Zrotation
										JOINT LeftHandRing3
										{
											OFFSET 3.295807 0.000000 0.000000
											CHANNELS 3 Xrotation Yrotation Zrotation
											End Site
											{
												OFFSET -1.281006 3.013344 0.375733
											}
										}
									}
								}
								JOINT LeftHandPinky1
								{
									OFFSET 10.518692 -0.960396 -5.730441
									CHANNELS 3 Xrotation Yrotation Zrotation
									JOINT LeftHandPinky2
									{
										OFFSET 2.861649 0.000000 0.000000
										CHANNELS 3 Xrotation Yrotation Zrotation
										JOINT LeftHandPinky3
										{
											OFFSET 2.863380 0.000000 0.000000
											CHANNELS 3 Xrotation Yrotation Zrotation
											End Site
											{
												OFFSET -0.843597 2.711159 0.369971
											}
										}
									}
								}
							}
							JOINT LSleeve
							{
								OFFSET 6.676277 -0.344902 -1.011730
								CHANNELS 3 Xrotation Yrotation Zrotation
								End Site
								{
									OFFSET 0.000000 14.885353 0.000000
								}
							}
						}
					}
				}
				JOINT RightShoulder
				{
					OFFSET -6.197800 13.665199 -4.064700
					CHANNELS 3 Xrotation Yrotation Zrotation
					JOINT RightArm
					{
						OFFSET -7.778100 -0.187103 -1.709300
						CHANNELS 3 Xrotation Yrotation Zrotation
						JOINT RightForeArm
						{
							OFFSET -22.049376 0.000000 0.000000
							CHANNELS 3 Xrotation Yrotation Zrotation
							JOINT RightHand
							{
								OFFSET -23.009392 0.000000 0.000000
								CHANNELS 3 Xrotation Yrotation Zrotation
								JOINT RightHandThumb1
								{
									OFFSET -3.507191 -2.063065 3.133727
									CHANNELS 3 Xrotation Yrotation Zrotation
									JOINT RightHandThumb2
									{
										OFFSET -3.101337 -1.790558 1.790558
										CHANNELS 3 Xrotation Yrotation Zrotation
										JOINT RightHandThumb3
										{
											OFFSET -3.058640 -1.765907 1.765906
											CHANNELS 3 Xrotation Yrotation Zrotation
											End Site
											{
												OFFSET 0.415260 3.926476 -0.049563
											}
										}
									}
								}
								JOINT RightHandIndex1
								{
									OFFSET -11.334419 -0.901459 3.706815
									CHANNELS 3 Xrotation Yrotation Zrotation
									JOINT RightHandIndex2
									{
										OFFSET -3.283112 0.000000 0.000000
										CHANNELS 3 Xrotation Yrotation Zrotation
										JOINT RightHandIndex3
										{
											OFFSET -3.323853 0.000000 0.000000
											CHANNELS 3 Xrotation Yrotation Zrotation
											End Site
											{
												OFFSET 1.135597 3.097809 0.402452
											}
										}
									}
								}
								JOINT RightHandMiddle1
								{
									OFFSET -11.335861 0.000000 0.000000
									CHANNELS 3 Xrotation Yrotation Zrotation
									JOINT RightHandMiddle2
									{
										OFFSET -3.410492 0.000000 0.000000
										CHANNELS 3 Xrotation Yrotation Zrotation
										JOINT RightHandMiddle3
										{
											OFFSET -3.312172 0.000000 0.000000
											CHANNELS 3 Xrotation Yrotation Zrotation
											End Site
											{
												OFFSET 1.150200 3.080154 0.400270
											}
										}
									}
								}
								JOINT RightHandRing1
								{
									OFFSET -11.514786 -0.013176 -3.003090
									CHANNELS 3 Xrotation Yrotation Zrotation
									JOINT RightHandRing2
									{
										OFFSET -3.053307 0.000000 0.000000
										CHANNELS 3 Xrotation Yrotation Zrotation
										JOINT RightHandRing3
										{
											OFFSET -3.295807 0.000000 0.000000
											CHANNELS 3 Xrotation Yrotation Zrotation
											End Site
											{
												OFFSET 1.281006 3.013344 0.375733
											}
										}
									}
								}
								JOINT RightHandPinky1
								{
									OFFSET -10.518692 -0.960396 -5.730441
									CHANNELS 3 Xrotation Yrotation Zrotation
									JOINT RightHandPinky2
									{
										OFFSET -2.861649 0.000000 0.000000
										CHANNELS 3 Xrotation Yrotation Zrotation
										JOINT RightHandPinky3
										{
											OFFSET -2.863380 0.000000 0.000000
											CHANNELS 3 Xrotation Yrotation Zrotation
											End Site
											{
												OFFSET 0.843597 2.711159 0.369971
											}
										}
									}
								}
							}
							JOINT RSleeve
							{
								OFFSET -6.676277 -0.344902 -1.011730
								CHANNELS 3 Xrotation Yrotation Zrotation
								End Site
								{
									OFFSET 0.000000 14.885353 0.000000
								}
							}
						}
					}
				}
				JOINT Backpack
				{
					OFFSET 0.000000 -2.471497 36.677502
					CHANNELS 3 Xrotation Yrotation Zrotation
					End Site
					{
						OFFSET 0.000000 20.427315 0.000000
					}
				}
				JOINT Hood
				{
					OFFSET 0.000000 18.754097 -10.431000
					CHANNELS 3 Xrotation Yrotation Zrotation
					JOINT Hood1
					{
						OFFSET 0.000000 -5.011002 -7.685901
						CHANNELS 3 Xrotation Yrotation Zrotation
						End Site
						{
							OFFSET 0.000000 9.175140 0.000000
						}
					}
				}
				JOINT LHoodieString
				{
					OFFSET 5.250500 16.397697 3.089900
					CHANNELS 3 Xrotation Yrotation Zrotation
					JOINT LHoodieString1
					{
						OFFSET 0.257700 -6.364304 3.694600
						CHANNELS 3 Xrotation Yrotation Zrotation
						JOINT LHoodieString2
						{
							OFFSET 0.000000 -9.643799 2.679100
							CHANNELS 3 Xrotation Yrotation Zrotation
							End Site
							{
								OFFSET 0.000000 10.009018 0.000000
							}
						}
					}
				}
				JOINT RHoodieString
				{
					OFFSET -5.250500 16.397697 3.089900
					CHANNELS 3 Xrotation Yrotation Zrotation
					JOINT RHoodieString1
					{
						OFFSET -0.257700 -6.364304 3.694600
						CHANNELS 3 Xrotation Yrotation Zrotation
						JOINT RHoodieString2
						{
							OFFSET 0.000000 -9.643799 2.679100
							CHANNELS 3 Xrotation Yrotation Zrotation
							End Site
							{
								OFFSET 0.000000 10.009018 0.000000
							}
						}
					}
				}
			}
			JOINT LBackpack_Strap
			{
				OFFSET 15.223200 -7.719803 -6.610900
				CHANNELS 3 Xrotation Yrotation Zrotation
				End Site
				{
					OFFSET 0.000000 16.040596 0.000000
				}
			}
			JOINT RBackpack_Strap
			{
				OFFSET -15.223000 -7.719803 -6.610900
				CHANNELS 3 Xrotation Yrotation Zrotation
				End Site
				{
					OFFSET 0.000000 16.040596 0.000000
				}
			}
		}
	}
	JOINT BoyFacialAnim_Joint
	{
		OFFSET 1.000000 -82.208099 -1.550900
		CHANNELS 3 Xrotation Yrotation Zrotation
		End Site
		{
			OFFSET 0.000000 30.012791 0.000000
		}
	}
}
MOTION
Frames: 5
Frame Time: 0.033333
0.010382 68.875221 1.294550 13.577654 -19.795317 -13.124134 0.000001 0.000001 -0.000001 -61.476730 -14.881739 26.323237 133.352750 -4.200401 -3.441311 22.388237 -9.992860 -8.833069 -0.000000 0.000000 -0.000001 -0.000000 0.000000 -0.000001 -0.000001 0.000000 0.000000 -31.071794 -4.275014 19.341808 67.647519 -0.291938 2.149614 -20.538392 9.181914 -8.047950 -0.000002 0.000000 -0.000000 -0.000002 0.000000 -0.000000 0.000000 0.000000 0.000002 5.162391 2.864522 4.287559 10.567116 5.980063 2.498736 10.567092 5.980064 2.498738 -3.905524 -2.134382 -3.950053 -29.653488 12.686486 6.644907 0.000000 0.000001 -0.000000 0.000000 0.000001 -0.000000 0.000000 0.000001 -0.000000 0.344378 2.030826 4.441747 2.894284 4.672393 -60.214586 0.011176 -58.806850 0.143724 62.847576 -15.778439 2.463385 -1.979877 -11.507370 -0.411185 0.239117 2.576888 2.039373 -0.000000 0.000000 0.000001 5.661341 -2.854361 0.073364 0.329771 1.124794 -43.979165 0.000001 -0.000000 -0.000002 0.828246 4.748494 -11.532546 -1.733438 -3.133310 -50.864791 0.000001 -0.000001 0.000002 -17.817021 18.648817 -17.460398 -1.970969 -4.440841 -53.495937 0.000001 -0.000001 -0.000001 0.824307 25.353476 -32.630809 -2.609713 -8.141846 -52.243789 -0.000001 0.000000 0.000001 0.000001 0.000000 0.000000 0.817250 10.759168 -11.612768 -25.352417 6.118661 77.583374 -0.033704 108.463527 0.053677 38.748336 -2.580753 -18.858239 14.833380 10.195085 -2.365187 -1.202683 -0.203451 -2.193526 -0.000001 -0.000000 0.000003 -5.877715 -3.330493 2.913229 0.532361 -1.828223 38.598943 -0.000000 0.000001 0.000002 -5.488295 -1.728143 19.845449 -0.840506 1.786133 40.098002 0.000005 0.000001 -0.000004 -12.412106 -5.437290 26.327453 -1.291362 4.270261 37.763190 -0.000000 0.000000 0.000004 -8.540165 3.460556 31.445392 -2.207808 9.105762 38.961520 -0.000004 0.000002 0.000002 -0.000001 -0.000001 -0.000001 -0.000001 0.000001 -0.000000 -0.000001 0.000001 -0.000000 -0.000001 0.000001 -0.000000 -0.000001 0.000001 -0.000000 -0.000001 0.000001 -0.000000 -0.000005 0.000000 -0.000000 -0.000001 0.000001 -0.000000 -0.000001 0.000001 -0.000000 -0.000005 0.000000 -0.000000 0.000000 0.000000 0.000001 0.000000 0.000000 0.000001 0.000001 0.000001 -0.000001 
-0.475952 71.792923 11.976955 12.196700 -19.754724 -9.028900 -0.000000 0.000000 -0.000000 -71.670760 -12.305340 22.920107 129.414108 -2.602949 -3.215362 18.809579 -4.635642 -8.766159 -0.000000 -0.000000 0.000000 -0.000000 -0.000000 0.000000 -0.000001 -0.000000 -0.000000 -17.209507 4.472977 13.515752 54.310294 3.502285 2.077362 -15.797804 4.360580 -0.207996 0.000004 -0.000000 -0.000000 0.000004 -0.000000 -0.000000 -0.000002 0.000000 -0.000001 4.975047 3.333141 3.024698 10.264920 6.257034 0.317294 10.264924 6.257031 0.317293 -1.584546 -2.214751 -4.257747 -27.047329 9.694021 6.328219 -0.000000 -0.000000 0.000000 -0.000000 -0.000000 0.000000 -0.000000 -0.000000 0.000000 0.496181 1.607468 9.678023 8.144824 1.324170 -60.689161 -0.034756 -54.763302 0.124320 61.669143 -15.095379 8.036274 -4.365174 -11.533956 -2.108172 -1.496626 3.742002 2.095702 0.000000 0.000000 0.000001 4.909933 -2.636899 0.076363 0.232377 1.096317 -41.795205 -0.000001 0.000000 -0.000002 0.732000 4.575288 -11.179215 -1.608467 -3.019163 -48.243597 0.000001 0.000001 -0.000005 -16.657488 17.713110 -17.364429 -1.852591 -4.332702 -51.991103 -0.000000 -0.000001 0.000001 1.002888 24.308508 -32.157299 -2.155553 -7.784250 -49.428867 -0.000001 0.000000 0.000001 -0.000001 0.000000 -0.000002 0.375303 10.612311 -12.398009 -15.274875 6.232991 69.534645 -0.074331 111.130402 0.081993 29.459026 -3.318255 -24.999329 11.965223 9.295517 -2.288039 -1.191097 -0.201291 -2.174697 -0.000002 0.000002 0.000000 -6.109316 -2.548490 1.074403 0.445932 -1.739248 36.260979 0.000000 -0.000000 0.000002 -5.214470 -1.486820 16.245499 -0.740796 1.655399 36.816601 0.000001 -0.000004 -0.000003 -11.313687 -5.442523 23.099053 -1.069499 3.954981 34.539403 0.000002 0.000001 0.000001 -7.090342 2.466319 29.391800 -1.619013 8.419311 35.090391 0.000001 0.000001 0.000000 0.000001 0.000000 0.000001 -0.000001 -0.000000 -0.000000 -0.000001 -0.000000 -0.000000 -0.000001 -0.000000 -0.000000 -0.000001 -0.000000 -0.000000 -0.000001 -0.000000 -0.000000 -0.000004 0.000000 0.000000 -0.000001 -0.000000 -0.000000 -0.000001 -0.000000 -0.000000 -0.000004 0.000000 0.000000 -0.000000 -0.000000 -0.000000 -0.000000 -0.000000 -0.000000 -0.000000 0.000000 -0.000000 
-0.902797 74.750755 21.779121 10.450193 -19.444370 -7.004954 -0.000000 0.000002 -0.000001 -77.501009 -7.698758 20.073496 121.296728 1.114092 -2.977208 16.128646 -0.247703 -4.422674 0.000000 0.000000 -0.000000 0.000000 0.000000 0.000000 -0.000001 0.000000 0.000000 -5.715049 8.473101 8.784030 40.952441 5.974288 1.854194 9.503526 1.806693 9.283727 -0.000002 -0.000000 -0.000000 -0.000002 -0.000000 -0.000000 0.000001 -0.000000 0.000002 5.047155 3.629304 1.890190 10.370993 6.438452 -0.570964 10.370989 6.438451 -0.570961 0.440632 -2.094799 -5.069493 -25.107541 7.223185 6.007705 0.000000 0.000000 -0.000000 0.000000 0.000000 -0.000000 0.000000 0.000000 -0.000000 0.470939 1.111067 11.931314 8.195187 0.378942 -57.709832 -0.028737 -55.258515 0.140306 58.794869 -13.556863 8.809485 -6.857831 -11.400163 -3.955641 -3.430986 4.992440 2.203951 0.000000 0.000000 -0.000001 4.088941 -2.393409 0.124250 0.136930 1.056648 -39.420450 0.000002 -0.000001 0.000001 0.629211 4.384854 -10.789850 -1.474549 -2.890095 -45.391245 0.000001 0.000001 0.000002 -15.374769 16.713121 -17.279846 -1.731945 -4.213405 -50.399730 0.000001 0.000000 -0.000002 1.231594 23.167547 -31.679435 -1.706100 -7.366430 -46.399794 -0.000002 0.000000 0.000003 0.000001 -0.000003 0.000001 0.211120 10.001050 -13.573760 -16.283943 7.393022 64.223251 -0.134860 109.445695 0.136997 22.412502 -2.574789 -24.964867 8.815412 8.580861 -2.180111 -1.179501 -0.199244 -2.155214 -0.000002 -0.000002 0.000001 -6.270496 -1.690207 -1.017544 0.353167 -1.629944 33.509168 0.000003 -0.000001 0.000003 -4.887828 -1.259988 12.119029 -0.632823 1.496546 33.009942 0.000006 0.000000 0.000003 -10.169472 -5.691238 19.676477 -0.836484 3.574822 30.798641 -0.000000 0.000000 0.000004 -5.668290 0.981091 27.356236 -1.017145 7.583042 30.655532 -0.000003 -0.000001 0.000000 -0.000003 -0.000001 0.000001 -0.000001 0.000000 0.000000 -0.000001 0.000000 0.000000 -0.000001 0.000000 0.000000 -0.000001 0.000000 0.000000 -0.000001 0.000000 0.000000 -0.000002 -0.000000 0.000000 -0.000001 0.000000 0.000000 -0.000001 0.000000 0.000000 -0.000002 -0.000000 0.000000 -0.000000 -0.000000 0.000000 -0.000000 -0.000000 0.000000 -0.000000 0.000002 -0.000001 
-1.156266 77.010620 30.272743 8.872175 -19.137582 -5.967103 0.000000 -0.000002 -0.000000 -79.713710 -4.770259 17.364477 110.649413 2.698151 -2.823820 13.004144 3.498771 -3.394426 -0.000001 -0.000000 -0.000000 -0.000001 -0.000000 -0.000000 -0.000000 0.000000 -0.000000 -8.510154 6.109255 7.879840 49.522939 5.342020 2.132720 19.041434 6.300691 7.524486 -0.000002 0.000000 -0.000002 -0.000002 0.000000 -0.000002 -0.000002 0.000001 -0.000000 5.409908 3.646061 0.878793 11.005026 6.337625 -0.928826 11.005025 6.337621 -0.928824 1.431912 -1.814362 -5.794735 -24.228739 5.600144 5.871364 0.000001 -0.000000 0.000000 0.000001 -0.000000 0.000000 0.000001 -0.000000 0.000000 0.149082 2.509887 10.838995 3.011899 -2.001112 -52.600004 0.006461 -56.671176 0.169126 54.829876 -9.898959 8.105985 -9.393388 -11.102849 -5.911337 -5.535315 6.294939 2.372967 -0.000000 -0.000001 0.000000 3.212720 -2.133382 0.199273 0.048380 1.005675 -36.899653 -0.000001 0.000002 -0.000003 0.522610 4.180081 -10.377970 -1.334790 -2.747389 -42.362042 0.000002 -0.000001 -0.000002 -13.996757 15.666301 -17.184988 -1.611162 -4.083906 -48.737334 0.000002 0.000001 -0.000004 1.505875 21.954139 -31.189475 -1.279353 -6.893240 -43.203965 -0.000001 -0.000001 -0.000000 -0.000000 -0.000000 0.000001 0.054719 8.657759 -14.428559 -22.352805 9.898467 61.073393 -0.263931 103.836436 0.260376 16.886248 -0.737407 -21.787740 5.428628 7.955770 -2.015466 -1.167916 -0.197283 -2.135271 -0.000001 0.000000 -0.000001 -6.362965 -0.781531 -3.212263 0.263607 -1.506251 30.559376 -0.000000 -0.000002 0.000002 -4.508266 -1.071892 7.773671 -0.527906 1.323388 28.986527 0.000001 -0.000002 -0.000001 -9.030892 -6.129871 16.176369 -0.620860 3.156103 26.848377 -0.000001 0.000000 0.000004 -4.342549 -0.780002 25.385764 -0.472465 6.638810 25.981669 -0.000002 0.000001 0.000002 0.000001 -0.000001 0.000000 0.000002 0.000000 -0.000000 0.000002 0.000000 -0.000000 0.000002 0.000000 -0.000000 0.000002 0.000000 -0.000000 0.000002 0.000000 -0.000000 -0.000001 0.000000 -0.000000 0.000002 0.000000 -0.000000 0.000002 0.000000 -0.000000 -0.000001 0.000000 -0.000000 -0.000001 0.000001 0.000000 -0.000001 0.000001 0.000000 0.000000 -0.000002 -0.000000 
-1.287557 78.592850 38.184555 7.611543 -19.107809 -4.850207 0.000000 -0.000001 0.000000 -78.343725 -3.269345 14.250104 98.166443 3.256782 -2.666360 9.100340 6.837629 -3.959544 -0.000000 0.000000 -0.000000 -0.000000 0.000000 -0.000000 -0.000000 0.000000 -0.000000 -15.548652 1.315322 6.204149 63.454793 4.827402 2.528425 15.673515 10.872031 6.497465 0.000001 -0.000001 -0.000001 0.000001 -0.000001 -0.000001 -0.000004 -0.000002 0.000002 5.885945 3.478015 0.026050 11.896712 6.080031 -1.466261 11.896713 6.080031 -1.466259 1.472868 -1.466082 -6.015736 -23.537342 4.920971 5.527361 -0.000000 -0.000000 0.000000 -0.000000 -0.000000 0.000000 -0.000000 -0.000000 0.000000 -0.089861 4.180230 7.261768 -5.250162 -6.271691 -46.227444 0.052305 -57.511757 0.201927 50.582554 -5.691835 7.638535 -11.912033 -10.645103 -7.929839 -7.778849 7.617117 2.607763 0.000000 -0.000001 -0.000003 2.296062 -1.865158 0.283148 -0.028907 0.944092 -34.277745 0.000000 -0.000001 -0.000000 0.414796 3.963922 -9.957102 -1.192219 -2.592497 -39.210108 0.000002 -0.000001 -0.000001 -12.550100 14.590795 -17.060879 -1.492246 -3.945567 -47.019336 -0.000001 -0.000001 -0.000001 1.820860 20.691807 -30.680708 -0.890927 -6.372308 -39.888079 0.000001 0.000002 0.000000 -0.000003 0.000002 -0.000001 -0.361910 7.969034 -13.476269 -30.571811 13.494797 58.480776 -0.676477 96.888528 0.668831 12.941402 0.341301 -16.249517 1.855892 7.318053 -1.791212 -1.156389 -0.195367 -2.115028 0.000001 -0.000002 0.000000 -6.397663 0.152392 -5.359940 0.184989 -1.375927 27.627156 -0.000006 0.000000 -0.000003 -4.084177 -0.939452 3.517055 -0.434157 1.151347 25.054245 -0.000000 -0.000001 0.000001 -7.930927 -6.690761 12.712824 -0.443003 2.731046 22.994573 0.000001 -0.000000 0.000002 -3.132430 -2.595476 23.517656 -0.035274 5.646939 21.386987 -0.000003 -0.000000 0.000000 0.000000 -0.000000 0.000001 0.000002 0.000000 -0.000000 0.000002 0.000000 -0.000000 0.000002 0.000000 -0.000000 0.000002 0.000000 -0.000000 0.000002 0.000000 -0.000000 0.000001 0.000000 -0.000000 0.000002 0.000000 -0.000000 0.000002 0.000000 -0.000000 0.000001 0.000000 -0.000000 0.000001 -0.000000 0.000001 0.000001 -0.000000 0.000001 0.000000 -0.000001 0.000000 
